<svg width="1366" height="768" viewBox="0 0 1366 768" fill="none" xmlns="http://www.w3.org/2000/svg">
<g clip-path="url(#clip0)">
<rect width="1366" height="768" fill="#212121"/>
<path d="M1188 374C1188 833.501 815.501 1206 356 1206C-103.501 1206 -476 833.501 -476 374C-476 -85.5009 -103.501 -458 356 -458C815.501 -458 1188 -85.5009 1188 374Z" fill="#002944"/>
<path d="M1063 384C1063 774.465 746.465 1091 356 1091C-34.4653 1091 -351 774.465 -351 384C-351 -6.46533 -34.4653 -323 356 -323C746.465 -323 1063 -6.46533 1063 384Z" fill="#004D5E"/>
<path d="M888 374C888 667.816 649.816 906 356 906C62.1845 906 -176 667.816 -176 374C-176 80.1845 62.1845 -158 356 -158C649.816 -158 888 80.1845 888 374Z" fill="#05A5B4"/>
<path d="M763 374C763 598.78 580.78 781 356 781C131.22 781 -51 598.78 -51 374C-51 149.22 131.22 -33 356 -33C580.78 -33 763 149.22 763 374Z" fill="#6CE1EC"/>
<path d="M638 374C638 529.744 511.744 656 356 656C200.256 656 74 529.744 74 374C74 218.256 200.256 92 356 92C511.744 92 638 218.256 638 374Z" fill="#B3E8ED"/>
</g>
<defs>
<clipPath id="clip0">
<rect width="1366" height="768" fill="white"/>
</clipPath>
</defs>
</svg>
